<svg version="1.0" xmlns="http://www.w3.org/2000/svg" width="700.000000pt" height="700.000000pt" viewBox="0 0 700.000000 700.000000" preserveAspectRatio="xMidYMid meet">
<g transform="translate(0.000000,700.000000) scale(0.100000,-0.100000)" fill="#000000" stroke="none">
<path d="M3330 6104 c-14 -3 -68 -12 -120 -21 -119 -20 -279 -72 -384 -125
-322 -161 -553 -410 -746 -803 -207 -422 -311 -884 -340 -1510 -26 -544 20
-1063 130 -1490 203 -787 615 -1299 1175 -1460 188 -54 235 -60 500 -60 277 0
352 11 545 75 547 183 935 685 1135 1470 85 334 125 716 125 1190 0 768 -113
1344 -358 1820 -259 506 -611 791 -1096 892 -81 16 -145 21 -321 23 -121 2
-231 1 -245 -1z m317 -514 c182 -25 329 -96 454 -220 85 -85 209 -257 209
-291 0 -10 -26 -60 -58 -111 -110 -176 -191 -305 -265 -420 -21 -31 -40 -65
-44 -75 -18 -51 -24 -49 -177 49 -33 21 -64 38 -69 38 -11 0 -9 -23 23 -360
11 -118 25 -271 31 -340 16 -191 -4 -177 156 -115 188 72 403 156 556 217 110
44 125 52 110 63 -10 7 -60 38 -110 69 -51 32 -93 62 -93 67 0 12 157 266 170
274 10 6 12 1 44 -135 125 -538 129 -1214 10 -1815 -35 -178 -68 -302 -124
-475 -94 -287 -181 -454 -309 -593 -147 -159 -320 -245 -538 -269 -313 -34
-568 82 -766 350 -102 138 -104 106 24 310 299 475 339 540 339 556 0 9 4 16
9 16 5 0 57 -30 116 -66 59 -36 109 -63 112 -61 2 3 0 47 -6 99 -6 51 -18 165
-26 253 -37 417 -46 510 -50 514 -3 2 -39 -10 -82 -27 -160 -63 -411 -161
-498 -195 -49 -19 -123 -47 -162 -63 -40 -15 -73 -30 -73 -33 0 -3 50 -35 110
-71 60 -36 110 -68 110 -72 0 -3 -15 -29 -32 -57 -85 -131 -148 -231 -178
-280 -23 -37 -35 -49 -41 -40 -8 15 -58 260 -84 409 -39 233 -52 780 -25 1140
43 589 200 1099 436 1415 195 262 480 386 791 345z"></path>
</g>
</svg>
